<svg width="159" height="36" viewBox="0 0 159 36" fill="none" xmlns="http://www.w3.org/2000/svg">
<path d="M0 35.875V10.25H5.125V5.125H10.25V0H25.625V5.125H30.75V10.25H35.875V35.875H25.625V25.625H10.25V35.875H0ZM10.25 20.5H25.625V10.25H20.5V5.125H15.375V10.25H10.25V20.5ZM41 35.875V0H51.25V15.375H66.625V0H76.875V35.875H66.625V20.5H51.25V35.875H41ZM82 35.875V10.25H87.125V5.125H92.25V0H107.625V5.125H112.75V10.25H117.875V35.875H107.625V25.625H92.25V35.875H82ZM92.25 20.5H107.625V10.25H102.5V5.125H97.375V10.25H92.25V20.5ZM123 35.875V0H133.25V15.375H148.625V0H158.875V35.875H148.625V20.5H133.25V35.875H123Z" fill="black"/>
</svg>
